<?xml version="1.0" encoding="UTF-8"?><svg id="Layer_1" xmlns="http://www.w3.org/2000/svg" viewBox="0 0 24 24"><defs><style>.cls-1{fill:#fff;}</style></defs><path class="cls-1" d="m5.3,14.38c0-.49,0-.97,0-1.46,0-.13.01-.2.17-.2.98.02,1.95-.03,2.93.03.24.02.48.07.7.16.57.22.86.7.85,1.38-.01,1.07-.56,1.65-1.63,1.71-.95.06-1.9.01-2.86.03-.13,0-.17-.04-.17-.17,0-.49,0-.99,0-1.48h0Z"/><path class="cls-1" d="m6.87,10.71c-.45,0-.9,0-1.36,0-.15,0-.22-.02-.22-.2.01-.78,0-1.57,0-2.35,0-.17.06-.19.2-.19.87.01,1.75-.02,2.62.03.3.02.59.07.87.15.18.05.33.16.46.31.54.65.25,1.78-.54,2.08-.36.14-.74.16-1.12.16-.3,0-.61,0-.91,0h0Z"/><path class="cls-1" d="m17.13,12.51h-1.8c-.09,0-.18.01-.15-.13.14-.68.41-1.29,1.09-1.58.87-.37,2.13-.18,2.63.83.11.23.17.47.21.71.02.13-.01.18-.16.18-.61,0-1.21,0-1.82,0h0Z"/><path class="cls-1" d="m22.14,0H1.86C.83,0,0,.84,0,1.87v20.26c0,1.03.83,1.87,1.86,1.87h20.27c1.03,0,1.86-.84,1.86-1.87V1.87c0-1.03-.83-1.87-1.86-1.87h0Zm-7.31,6.36c.76,0,1.53,0,2.29,0s1.51,0,2.27,0c.17,0,.21.05.2.21-.01.29-.01.58,0,.87,0,.13-.04.16-.16.15-1.54,0-3.07,0-4.61,0-.14,0-.17-.04-.16-.17,0-.3,0-.6,0-.89,0-.13.04-.17.17-.17h0Zm-1.61,4.81c.58-1.37,1.65-2.13,3.11-2.36.89-.14,1.77-.08,2.62.24,1.11.41,1.81,1.22,2.23,2.31.31.81.31,1.67.33,2.52,0,.17-.1.14-.2.14-1.01,0-2.01,0-3.02,0h-2.88c-.2,0-.29.1-.27.29.06.9.56,1.57,1.42,1.8.8.21,1.58.18,2.2-.48.02-.02.04-.03.05-.05.13-.38.43-.39.77-.37.55.02,1.09,0,1.64,0,.14,0,.17.02.13.17-.23.9-.81,1.55-1.56,2.03-.95.62-2.01.75-3.12.64-1.01-.1-1.89-.49-2.65-1.16-.59-.52-.91-1.2-1.06-1.96-.25-1.27-.25-2.54.27-3.76ZM2.71,5.85c1.85,0,3.7,0,5.55,0,.8,0,1.59.09,2.31.47.91.48,1.4,1.25,1.53,2.27.07.54.02,1.08-.16,1.59-.2.55-.58.95-1.08,1.24-.07.04-.13.08-.22.13.33.15.63.29.89.5.61.51.91,1.19.98,1.96.12,1.31-.28,2.44-1.31,3.3-.58.49-1.28.68-2.02.76-.53.06-1.06.08-1.59.08-1.62,0-3.23,0-4.85,0-.18,0-.25-.03-.25-.23,0-3.95,0-7.9,0-11.85,0-.19.05-.23.23-.23h0Z"/></svg>