<?xml version="1.0" encoding="UTF-8"?><svg id="Layer_1" xmlns="http://www.w3.org/2000/svg" viewBox="0 0 34 24"><defs><style>.cls-1{fill:#fff;fill-rule:evenodd;}</style></defs><path class="cls-1" d="m.46.45c-.28.28-.46.67-.46,1.11v20.89c0,.42.16.8.43,1.07l11.08-12.36L.46.45Zm0,23.1l11.76-11.7,1.91,1.85c1.61,1.56,4.15,1.56,5.76,0l1.91-1.85,11.76,11.7c-.28.28-.67.45-1.09.45H1.55c-.43,0-.81-.17-1.09-.45Zm33.55-1.1V1.55c0-.43-.18-.82-.46-1.11l-11.05,10.71,11.08,12.36c.27-.28.43-.66.43-1.07Zm-.48-22.02l-14.18,12.78c-1.33,1.2-3.36,1.2-4.69,0L.48.43c.28-.27.65-.43,1.07-.43h30.91c.41,0,.79.16,1.07.43Z"/></svg>