<?xml version="1.0" encoding="UTF-8"?><svg id="Layer_1" xmlns="http://www.w3.org/2000/svg" viewBox="0 0 174 174"><defs><style>.cls-1{fill:none;}</style></defs><rect class="cls-1" width="174" height="174"/><path d="m49.92,82.74s0,0,0,0h0Z"/><path d="m49.23,85.74c-1,.53-2.08.82-3.2.81.69-1.03,1.28-2.15,1.75-3.37,2.14-5.52,1.62-11.96-1.52-16.8.16-.21.33-.41.47-.61,1.78-2.47,2.72-6.5-.5-8.13-2.52-1.27-5.12.98-4.91,3.91.12,1.71,1.15,3.09,2.09,4.37.15.2.29.4.43.61-.91,1.08-1.89,2.04-2.57,2.79-2.14,2.37-4.39,4.6-6.74,6.72-1.33-1.84-2.77-3.56-4.59-4.82-4.11-2.86-9.46-1.79-12.44,2.52-3.09,4.47-2.62,10.07.34,14.25-1.51.84-3.04,1.63-4.59,2.37-1.78.85-3.59,1.73-5.44,2.35-.87.28-2.36.62-2.58-.73-.04-.26-.01-.56.07-.81.04-.15.1-.28.17-.41.91.11,2.05-.94.8-1.43-2.04-.81-4.21,1.73-2.93,3.83,1.84,3.01,6.63.4,8.85-.58,2.26-1,4.48-2.1,6.66-3.3,6.97,7.74,19.59,6.57,26.09-1.28,1.61.16,3.26-.11,4.77-.75l-.51-1.52Zm-5.69-24.38h0c-.05-.68.04-1.63.5-2.17.75-.87,1.54.18,1.89.97.67,1.53.14,3.13-.82,4.63-.75-1.02-1.49-2.12-1.59-3.43Zm-25.94,20.13h0c-.58-5.86,4.51-12.74,10.07-9.6,2.19,1.24,3.86,3.28,5.4,5.46-3.03,2.62-6.22,5.02-9.53,7.2-1.29.85-2.59,1.64-3.92,2.42-1.08-1.58-1.81-3.4-2.01-5.48Zm14.3,11.53h0c-4,.21-8.41-1.53-11.27-4.73,3.52-2.04,6.93-4.31,10.18-6.82,1.1-.86,2.18-1.74,3.25-2.65,1.21,1.8,2.39,3.61,3.76,5.12,1.43,1.57,3.12,2.89,5.05,3.58-2.79,3.26-6.74,5.28-10.96,5.51Zm11.98-6.89c-1.78-.67-3.32-2.09-4.6-3.57-1.34-1.56-2.51-3.33-3.71-5.07,1.25-1.1,2.47-2.25,3.67-3.41h0c1.91-1.87,3.86-3.83,5.63-5.93.4.71.75,1.45,1.03,2.26,1.15,3.25,1.25,6.99.4,10.36-.5,2-1.34,3.8-2.42,5.38Z"/><path d="m46.47,89.74c-.86,2.91-2.59,8.79-.97,14.84.26.99,2.25,10.18,10.47,12.87,5.46,1.78,11.59,1.28,17.04-.43,9.31-2.95,17.53-10.2,21.89-19.69,1.64.67,3.79.21,5.25-.67,1.14-.69,2.06-1.73,2.78-2.91,2.09.69,4.15-.09,6.21-.69,5.06-1.45,10.12-2.91,15.18-4.36,1.94,1.93,4.78,2.3,7.35,1.95,3.44-.48,6.27-2.54,9.28-4.28,6.08-3.53,12.65-2.08,19.2-2.07,3.59,0,7.11-.44,10.47-1.91.59-.25.39-.68-.06-.91v-.03c-.6-.3-1.5-.08-2.09.17-3.34,1.47-6.97,1.42-10.49,1.26-3.63-.17-7.28-.5-10.91-.04-3.81.48-7.02,1.97-10.34,4.03-3.12,1.92-7.36,4.3-10.17.57-.45-.59-1.65-.37-2.2-.2-4.02,1.16-8.04,2.3-12.06,3.46-1.97.57-3.94,1.13-5.91,1.69-.66.18-1.14.45-1.79.13-.25-.13-.62-.38-.71-.68.1-.22.19-.46.28-.68.38-1.02-2.36-.68-2.74-.27-.05.06-.1.11-.14.17-.22.29-.33.56-.33.82-.44,1.02-.98,1.99-1.67,2.82-.58.7-1.66,1.92-2.55,1.42-.37-.21-.67-.63-.89-1.09.52-1.38.98-2.78,1.33-4.23.18-.74-1.1-.73-1.48-.7-1.61.14-3.05.89-3.23,2.82-.07.77.08,1.59.39,2.31-3.18,8.16-9.17,14.89-16.48,18.74-8.8,4.62-22.41,5.58-26.9-5.97-2.52-6.49-1.81-13.73.64-20.3.11-.04.22-.07.34-.12,3.06,2.54,7.19,3.05,10.76,1.41,1.35-.62-.31-1.59-1.2-1.19-1.46.67-3.03.84-4.58.48-.72-.17-1.4-.44-2.05-.82-.66-.38-1.18-1.05-1.83-1.41-.22-.12-.48-.15-.75-.16,1.75-4.1,4.15-7.88,6.82-10.96,3.87-4.46,8.59-7.95,13.64-10.59,4.8-2.5,10.2-4.71,15.49-5.43,2.87-.39,6.04-.07,8.12,2.34,1.74,2,2.22,4.83,1.83,7.52-.99,6.97-7.04,10.64-12.22,13.6-.54.31-.43.66.06.91.56.27,1.56.14,2.1-.17,4.99-2.86,10.82-6.26,12.61-12.6.7-2.49.8-5.19-.18-7.59-1.06-2.6-3.26-4.25-5.74-4.94-5.7-1.62-12.06.56-17.47,2.61-4.74,1.8-10.18,4.07-16.06,9.21-7.17,6.27-10.77,13.29-12.47,17.36-.23.61-.56,1.5-.88,2.6Z"/></svg>