<?xml version="1.0" encoding="UTF-8"?><svg id="Layer_1" xmlns="http://www.w3.org/2000/svg" viewBox="0 0 24 24"><defs><style>.cls-1{fill:#fff;}</style></defs><path class="cls-1" d="m23.98,1.76c-.03-.75-.47-1.23-1.09-1.58-.33-.18-.69-.18-1.05-.18C16.28,0,10.71,0,5.15,0,4.14,0,3.14.01,2.13,0,1.21-.01.55.39.15,1.22,0,1.53,0,1.87,0,2.2,0,8.62,0,15.03,0,21.44c0,.26,0,.51.02.77.05.8.5,1.3,1.17,1.65.19.1.41.07.61.14h20.37s.09-.02.13-.02c.73-.06,1.2-.49,1.54-1.1.11-.2.08-.44.15-.65V1.85s-.02-.06-.02-.09h0Zm-15.45,11.65v4.05c0,.46-.15.62-.61.62-.58,0-1.16,0-1.74,0-.41,0-.58-.17-.58-.58v-8.14c0-.42.17-.59.59-.59.59,0,1.18,0,1.77,0,.4,0,.57.17.57.57,0,1.36,0,2.71,0,4.07h0Zm-1.47-5.43c-1.05,0-1.9-.85-1.89-1.9,0-1.04.85-1.89,1.9-1.88,1.05,0,1.91.87,1.9,1.91,0,1.04-.86,1.88-1.9,1.88h0Zm11.9,9.59c0,.33-.17.51-.5.51-.67,0-1.33,0-2,0-.33,0-.5-.17-.5-.51,0-1.46,0-2.92,0-4.38,0-.37-.04-.73-.17-1.08-.2-.55-.57-.89-1.17-.94-.67-.06-1.18.17-1.51.77-.23.42-.33.87-.33,1.35,0,1.4,0,2.81,0,4.21,0,.42-.15.57-.58.57-.61,0-1.22,0-1.83,0-.36,0-.54-.17-.54-.53,0-2.75,0-5.5,0-8.25,0-.36.17-.53.53-.53.63,0,1.25,0,1.88,0,.36,0,.53.17.53.53,0,.18,0,.37,0,.61.18-.21.31-.39.48-.54.45-.4.99-.61,1.59-.69.69-.09,1.38-.07,2.04.16.83.29,1.36.89,1.68,1.7.3.76.37,1.57.38,2.37.01,1.55,0,3.11,0,4.66h0Z"/></svg>